HIERARCHY
ROOT Hips
{
    OFFSET 0.000000 0.000000 0.000000
    CHANNELS 6 Xposition Yposition Zposition Zrotation Xrotation Yrotation
    JOINT Spine
    {
        OFFSET -0.000000 7.236184 0.000000
        CHANNELS 3 Zrotation Xrotation Yrotation
        JOINT Spine1
        {
            OFFSET -0.000000 20.420147 0.000000
            CHANNELS 3 Zrotation Xrotation Yrotation
            JOINT Neck
            {
                OFFSET -0.000000 20.336288 1.848754
                CHANNELS 3 Zrotation Xrotation Yrotation
                JOINT Head
                {
                    OFFSET -0.000000 12.354461 -1.764923
                    CHANNELS 3 Zrotation Xrotation Yrotation
                    End Site
                    {
                        OFFSET -0.000000 22.061537 0.000000
                    }
                }
            }
            JOINT LeftShoulder
            {
                OFFSET 3.573296 18.396038 -0.314103
                CHANNELS 3 Zrotation Xrotation Yrotation
                JOINT LeftArm
                {
                    OFFSET 10.880760 0.000000 0.000000
                    CHANNELS 3 Zrotation Xrotation Yrotation
                    JOINT LeftForeArm
                    {
                        OFFSET 27.185530 0.000000 0.000000
                        CHANNELS 3 Zrotation Xrotation Yrotation
                        JOINT LeftHand
                        {
                            OFFSET 27.825975 0.000000 0.000000
                            CHANNELS 3 Zrotation Xrotation Yrotation
                            End Site
                            {
                                OFFSET 13.236923 0.000000 0.000000
                            }
                        }
                    }
                }
            }
            JOINT RightShoulder
            {
                OFFSET -3.474926 18.396038 -0.314103
                CHANNELS 3 Zrotation Xrotation Yrotation
                JOINT RightArm
                {
                    OFFSET -10.880760 0.000000 0.000000
                    CHANNELS 3 Zrotation Xrotation Yrotation
                    JOINT RightForeArm
                    {
                        OFFSET -27.185530 0.000000 0.000000
                        CHANNELS 3 Zrotation Xrotation Yrotation
                        JOINT RightHand
                        {
                            OFFSET -27.825975 0.000000 0.000000
                            CHANNELS 3 Zrotation Xrotation Yrotation
                            End Site
                            {
                                OFFSET -13.236923 0.000000 0.000000
                            }
                        }
                    }
                }
            }
        }
    }
    JOINT LeftUpLeg
    {
        OFFSET 8.824615 0.000000 0.000000
        CHANNELS 3 Zrotation Xrotation Yrotation
        JOINT LeftLeg
        {
            OFFSET -0.000000 -35.111282 0.000000
            CHANNELS 3 Zrotation Xrotation Yrotation
            JOINT LeftFoot
            {
                OFFSET -0.000000 -42.324711 0.000000
                CHANNELS 3 Zrotation Xrotation Yrotation
                JOINT LeftToeBase
                {
                    OFFSET -0.000000 -5.735999 13.236923
                    CHANNELS 3 Zrotation Xrotation Yrotation
                    End Site
                    {
                        OFFSET -0.000000 0.000000 3.529846
                    }
                }
            }
        }
    }
    JOINT RightUpLeg
    {
        OFFSET -8.824615 0.000000 0.000000
        CHANNELS 3 Zrotation Xrotation Yrotation
        JOINT RightLeg
        {
            OFFSET -0.000000 -35.111282 0.000000
            CHANNELS 3 Zrotation Xrotation Yrotation
            JOINT RightFoot
            {
                OFFSET -0.000000 -42.324711 0.000000
                CHANNELS 3 Zrotation Xrotation Yrotation
                JOINT RightToeBase
                {
                    OFFSET -0.000000 -5.735999 13.236923
                    CHANNELS 3 Zrotation Xrotation Yrotation
                    End Site
                    {
                        OFFSET -0.000000 0.000000 3.529846
                    }
                }
            }
        }
    }
}
MOTION
Frames:    10
Frame Time:    0.008333
-6.804530    84.957939    100.363708    -2.184078    -7.797742    -176.607895    -4.843361    -15.427315    0.008019    -0.651563    4.805520    0.691784    2.296176    7.637634    -5.471891    8.656601    -6.922291    -4.134301    -0.838031    17.829977    1.727654    -59.323387    27.713587    -24.188667    -2.497226    -4.229028    -5.941994    15.978134    -3.907824    3.217245    7.675543    17.937881    -7.705243    44.172695    46.321426    32.763630    -2.630864    -9.363481    19.800697    -17.696873    -8.395936    -3.339755    0.716573    -9.670626    -5.658176    0.322569    13.492396    4.005111    -2.588179    -9.482935    -10.057515    -1.000104    0.328884    1.107920    -10.450522    -1.204345    -8.691132    2.614851    2.616328    -6.228431    5.433000    -2.996521    -12.868956    0.148119    0.131582    -0.160173
-6.948639    84.959435    100.381432    -2.138083    -7.791993    -176.982468    -4.863702    -15.344484    -0.045194    -0.560359    4.689872    0.633329    2.526237    7.593862    -5.284827    8.676932    -6.997144    -3.949124    -0.738208    17.794199    1.624987    -59.414974    27.641047    -24.073000    -2.515086    -4.079629    -5.922134    15.946052    -3.765569    3.175761    7.714675    17.881514    -7.810040    44.303284    46.310097    32.468960    -2.613697    -9.477189    19.718771    -17.792458    -8.516329    -3.311665    0.676825    -9.822586    -5.376542    0.338724    13.833713    4.228778    -2.558152    -9.637940    -10.141742    -0.984462    0.315166    1.090619    -10.648130    -1.656874    -8.639948    2.733983    3.227184    -6.155677    5.688969    -2.898711    -12.666986    0.094640    -0.020780    -0.102363
-7.096817    84.962898    100.406479    -2.081981    -7.792110    -177.401093    -4.882864    -15.248947    -0.102765    -0.449259    4.558459    0.569157    2.778055    7.547831    -5.068787    8.697220    -7.083354    -3.734901    -0.636756    17.757940    1.517657    -59.516846    27.575315    -23.955631    -2.533426    -3.927800    -5.899470    15.926014    -3.621084    3.130159    7.759104    17.822081    -7.919573    44.425293    46.270161    32.186829    -2.584076    -9.588695    19.597433    -17.882252    -8.638295    -3.280152    0.654031    -9.980890    -5.068845    0.348651    14.172928    4.500916    -2.539635    -9.786944    -10.255125    -0.972014    0.298891    1.076860    -10.863987    -2.187935    -8.580180    2.877843    3.931102    -6.088662    5.975308    -2.768219    -12.431033    0.037690    -0.207716    -0.040776
-7.250056    84.968719    100.439308    -2.016375    -7.797797    -177.869293    -4.902854    -15.138542    -0.166308    -0.313731    4.410059    0.497823    3.050181    7.499951    -4.820151    8.718184    -7.181085    -3.487639    -0.534486    17.722435    1.405819    -59.629852    27.518845    -23.835649    -2.552528    -3.774736    -5.873586    15.919753    -3.475497    3.080324    7.806499    17.760201    -8.032098    44.537651    46.199081    31.919230    -2.544602    -9.695572    19.435663    -17.964697    -8.758829    -3.245852    0.647995    -10.142518    -4.735152    0.352151    14.506620    4.818078    -2.528783    -9.929368    -10.389729    -0.963567    0.279560    1.067540    -11.103204    -2.805311    -8.503921    3.052211    4.737599    -6.037355    6.296913    -2.595805    -12.154853    -0.021628    -0.435194    0.023407
-7.401072    84.976830    100.478104    -1.945810    -7.807710    -178.365036    -4.924074    -15.018004    -0.233422    -0.158119    4.253476    0.421892    3.325624    7.453075    -4.550353    8.738819    -7.284421    -3.218417    -0.437989    17.691288    1.296180    -59.746384    27.478128    -23.720579    -2.571725    -3.629912    -5.845775    15.927381    -3.337989    3.028732    7.851643    17.699743    -8.139465    44.635555    46.098907    31.680595    -2.500987    -9.789918    19.243780    -18.034821    -8.868513    -3.211093    0.657817    -10.294806    -4.396988    0.348736    14.813344    5.157582    -2.521219    -10.057736    -10.526789    -0.959757    0.258609    1.063358    -11.357526    -3.478430    -8.410144    3.253610    5.606908    -6.011414    6.639890    -2.382646    -11.849868    -0.079219    -0.694704    0.085764
-7.573767    84.988960    100.529167    -1.859984    -7.822774    -178.968994    -4.950449    -14.868415    -0.315767    0.044938    4.066988    0.329081    3.644138    7.400765    -4.214915    8.762375    -7.408562    -2.882607    -0.333804    17.661743    1.172679    -59.880016    27.454412    -23.595274    -2.594960    -3.473804    -5.813368    15.949508    -3.190159    2.968209    7.898957    17.631536    -8.255497    44.733952    45.949593    31.435669    -2.449898    -9.883563    18.993992    -18.103271    -8.980731    -3.171211    0.684907    -10.456471    -4.007349    0.337229    15.134067    5.569566    -2.511778    -10.190834    -10.676713    -0.959787    0.233942    1.063438    -11.670918    -4.316522    -8.280922    3.521528    6.678823    -6.009640    7.061210    -2.084186    -11.469386    -0.142167    -1.031729    0.153986
-7.746164    85.004295    100.587013    -1.769512    -7.840865    -179.610687    -4.977277    -14.707129    -0.403085    0.273336    3.875874    0.230461    3.961354    7.350229    -3.852544    8.785642    -7.536351    -2.518652    -0.237279    17.639967    1.052094    -60.008331    27.462294    -23.480047    -2.620477    -3.330388    -5.782278    15.982748    -3.054941    2.907372    7.939191    17.564192    -8.361493    44.821766    45.762489    31.218878    -2.401035    -9.960361    18.717943    -18.160816    -9.076457    -3.130699    0.727476    -10.600070    -3.624071    0.317209    15.417047    6.005631    -2.499312    -10.308592    -10.811098    -0.962889    0.210304    1.066921    -12.010146    -5.222682    -8.129636    3.835471    7.826354    -6.036865    7.513741    -1.720667    -11.060625    -0.200545    -1.410578    0.217332
-7.923986    85.023354    100.652954    -1.672022    -7.861871    179.691345    -5.003062    -14.530945    -0.496965    0.531845    3.678208    0.124341    4.283789    7.300192    -3.454063    8.808360    -7.668697    -2.117547    -0.145914    17.624352    0.930509    -60.127853    27.511217    -23.372726    -2.650247    -3.197438    -5.755608    16.022379    -2.930375    2.846549    7.972394    17.495426    -8.460109    44.904263    45.531994    31.020813    -2.355764    -10.023597    18.415173    -18.214319    -9.158655    -3.089065    0.785324    -10.727338    -3.243126    0.287301    15.668568    6.483992    -2.483634    -10.414902    -10.932296    -0.966620    0.189264    1.071095    -12.385904    -6.221634    -7.957354    4.208938    9.078854    -6.089902    8.011196    -1.275525    -10.618448    -0.255427    -1.839123    0.276975
-8.110773    85.046707    100.728348    -1.565475    -7.886009    178.922562    -5.024890    -14.337455    -0.598140    0.823876    3.473593    0.010467    4.614522    7.250479    -3.012407    8.828875    -7.804579    -1.672637    -0.058819    17.613550    0.805009    -60.232323    27.615107    -23.273163    -2.686399    -3.075620    -5.737648    16.062588    -2.817362    2.786522    7.997909    17.423601    -8.551719    44.985615    45.251350    30.836340    -2.315790    -10.075065    18.086716    -18.270863    -9.228580    -3.046591    0.859607    -10.836632    -2.866302    0.244820    15.887448    7.023473    -2.465167    -10.510275    -11.042150    -0.968553    0.171949    1.073270    -12.806830    -7.335701    -7.769432    4.655476    10.460567    -6.170383    8.565202    -0.728961    -10.137112    -0.307163    -2.321490    0.333303
-8.304592    85.074142    100.812302    -1.451014    -7.913085    178.091110    -5.038637    -14.130016    -0.702119    1.142992    3.267424    -0.109843    4.947643    7.202721    -2.533710    8.844678    -7.938444    -1.190749    0.023203    17.606554    0.676311    -60.310871    27.786785    -23.184717    -2.729704    -2.969346    -5.734663    16.094767    -2.720288    2.730545    8.015347    17.348976    -8.634443    45.067066    44.922821    30.665205    -2.283697    -10.116061    17.744608    -18.337624    -9.286251    -3.006167    0.949197    -10.923966    -2.505169    0.188534    16.067310    7.625953    -2.444757    -10.593020    -11.139303    -0.966329    0.160740    1.070827    -13.268215    -8.556193    -7.581588    5.173407    11.956575    -6.278021    9.170515    -0.076905    -9.625017    -0.355513    -2.844258    0.386058
